<mxfile host="Electron" agent="Mozilla/5.0 (Macintosh; Intel Mac OS X 10_15_7) AppleWebKit/537.36 (KHTML, like Gecko) draw.io/26.0.16 Chrome/132.0.6834.196 Electron/34.2.0 Safari/537.36" version="26.0.16">
  <diagram name="第 1 页" id="fo40YNabmWwFxrmiHhFv">
    <mxGraphModel dx="1434" dy="769" grid="1" gridSize="10" guides="1" tooltips="1" connect="1" arrows="1" fold="1" page="1" pageScale="1" pageWidth="827" pageHeight="1169" math="0" shadow="0">
      <root>
        <mxCell id="0" />
        <mxCell id="1" parent="0" />
        <mxCell id="BDNB5SrNFJ6ky5sQW8cg-5" style="edgeStyle=orthogonalEdgeStyle;rounded=0;orthogonalLoop=1;jettySize=auto;html=1;exitX=1;exitY=0.5;exitDx=0;exitDy=0;entryX=0;entryY=0.5;entryDx=0;entryDy=0;" edge="1" parent="1" source="BDNB5SrNFJ6ky5sQW8cg-1" target="BDNB5SrNFJ6ky5sQW8cg-4">
          <mxGeometry relative="1" as="geometry" />
        </mxCell>
        <mxCell id="BDNB5SrNFJ6ky5sQW8cg-12" value="加工成键值对" style="edgeLabel;html=1;align=center;verticalAlign=middle;resizable=0;points=[];" vertex="1" connectable="0" parent="BDNB5SrNFJ6ky5sQW8cg-5">
          <mxGeometry x="-0.2462" relative="1" as="geometry">
            <mxPoint as="offset" />
          </mxGeometry>
        </mxCell>
        <mxCell id="BDNB5SrNFJ6ky5sQW8cg-1" value="KVStore" style="rounded=0;whiteSpace=wrap;html=1;" vertex="1" parent="1">
          <mxGeometry x="90" y="410" width="120" height="60" as="geometry" />
        </mxCell>
        <mxCell id="BDNB5SrNFJ6ky5sQW8cg-9" style="edgeStyle=orthogonalEdgeStyle;rounded=0;orthogonalLoop=1;jettySize=auto;html=1;exitX=1;exitY=0.5;exitDx=0;exitDy=0;entryX=1;entryY=0.5;entryDx=0;entryDy=0;" edge="1" parent="1" source="BDNB5SrNFJ6ky5sQW8cg-2" target="BDNB5SrNFJ6ky5sQW8cg-8">
          <mxGeometry relative="1" as="geometry" />
        </mxCell>
        <mxCell id="BDNB5SrNFJ6ky5sQW8cg-2" value="raftNode" style="rounded=0;whiteSpace=wrap;html=1;" vertex="1" parent="1">
          <mxGeometry x="670" y="410" width="120" height="60" as="geometry" />
        </mxCell>
        <mxCell id="BDNB5SrNFJ6ky5sQW8cg-7" style="edgeStyle=orthogonalEdgeStyle;rounded=0;orthogonalLoop=1;jettySize=auto;html=1;exitX=0.5;exitY=1;exitDx=0;exitDy=0;entryX=0;entryY=0.5;entryDx=0;entryDy=0;" edge="1" parent="1" source="BDNB5SrNFJ6ky5sQW8cg-3" target="BDNB5SrNFJ6ky5sQW8cg-1">
          <mxGeometry relative="1" as="geometry" />
        </mxCell>
        <mxCell id="BDNB5SrNFJ6ky5sQW8cg-11" value="put数据" style="edgeLabel;html=1;align=center;verticalAlign=middle;resizable=0;points=[];" vertex="1" connectable="0" parent="BDNB5SrNFJ6ky5sQW8cg-7">
          <mxGeometry x="0.0697" y="-1" relative="1" as="geometry">
            <mxPoint as="offset" />
          </mxGeometry>
        </mxCell>
        <mxCell id="BDNB5SrNFJ6ky5sQW8cg-3" value="httpKVAPI" style="rounded=0;whiteSpace=wrap;html=1;" vertex="1" parent="1">
          <mxGeometry x="340" y="70" width="120" height="60" as="geometry" />
        </mxCell>
        <mxCell id="BDNB5SrNFJ6ky5sQW8cg-6" style="edgeStyle=orthogonalEdgeStyle;rounded=0;orthogonalLoop=1;jettySize=auto;html=1;exitX=1;exitY=0.5;exitDx=0;exitDy=0;" edge="1" parent="1" source="BDNB5SrNFJ6ky5sQW8cg-4" target="BDNB5SrNFJ6ky5sQW8cg-2">
          <mxGeometry relative="1" as="geometry" />
        </mxCell>
        <mxCell id="BDNB5SrNFJ6ky5sQW8cg-4" value="proposeCh" style="rounded=0;whiteSpace=wrap;html=1;" vertex="1" parent="1">
          <mxGeometry x="340" y="410" width="120" height="60" as="geometry" />
        </mxCell>
        <mxCell id="BDNB5SrNFJ6ky5sQW8cg-10" style="edgeStyle=orthogonalEdgeStyle;rounded=0;orthogonalLoop=1;jettySize=auto;html=1;exitX=0;exitY=0.5;exitDx=0;exitDy=0;entryX=0.5;entryY=0;entryDx=0;entryDy=0;" edge="1" parent="1" source="BDNB5SrNFJ6ky5sQW8cg-8" target="BDNB5SrNFJ6ky5sQW8cg-1">
          <mxGeometry relative="1" as="geometry" />
        </mxCell>
        <mxCell id="BDNB5SrNFJ6ky5sQW8cg-8" value="commitCh" style="rounded=0;whiteSpace=wrap;html=1;" vertex="1" parent="1">
          <mxGeometry x="340" y="320" width="120" height="60" as="geometry" />
        </mxCell>
        <mxCell id="BDNB5SrNFJ6ky5sQW8cg-13" value="dir wal目录" style="rounded=0;whiteSpace=wrap;html=1;" vertex="1" parent="1">
          <mxGeometry x="340" y="650" width="120" height="30" as="geometry" />
        </mxCell>
        <mxCell id="BDNB5SrNFJ6ky5sQW8cg-14" value="WAL" style="text;html=1;align=center;verticalAlign=middle;whiteSpace=wrap;rounded=0;" vertex="1" parent="1">
          <mxGeometry x="370" y="610" width="60" height="30" as="geometry" />
        </mxCell>
        <mxCell id="BDNB5SrNFJ6ky5sQW8cg-15" value="decoder wal文件内容" style="rounded=0;whiteSpace=wrap;html=1;" vertex="1" parent="1">
          <mxGeometry x="340" y="680" width="120" height="30" as="geometry" />
        </mxCell>
        <mxCell id="BDNB5SrNFJ6ky5sQW8cg-17" style="edgeStyle=orthogonalEdgeStyle;rounded=0;orthogonalLoop=1;jettySize=auto;html=1;exitX=0;exitY=0.5;exitDx=0;exitDy=0;entryX=1;entryY=0.5;entryDx=0;entryDy=0;" edge="1" parent="1" source="BDNB5SrNFJ6ky5sQW8cg-16" target="BDNB5SrNFJ6ky5sQW8cg-14">
          <mxGeometry relative="1" as="geometry" />
        </mxCell>
        <mxCell id="BDNB5SrNFJ6ky5sQW8cg-16" value="wal" style="rounded=0;whiteSpace=wrap;html=1;" vertex="1" parent="1">
          <mxGeometry x="680" y="470" width="100" height="20" as="geometry" />
        </mxCell>
      </root>
    </mxGraphModel>
  </diagram>
</mxfile>
